# AST/ASF file generated using VICON BodyLanguage
# -----------------------------------------------
:version 1.10
:name VICON
:units
  mass 1.0
  length 0.45
  angle deg
:documentation
   .ast/.asf automatically generated from VICON data using
   VICON BodyBuilder and BodyLanguage model FoxedUp or BRILLIANT.MOD
:root
   order TX TY TZ RX RY RZ
   axis XYZ
   position 0 0 0  
   orientation 0 0 0 
:bonedata
  begin
     id 1 
     name lhipjoint
     direction 0.646657 -0.683706 0.338203 
     length 2.4948 
     axis 0 0 0  XYZ
  end
  begin
     id 2 
     name lfemur
     direction 0.34202 -0.939693 0  
     length 6.79491  
     axis 0 0 20  XYZ
    dof rx ry rz
    limits (-160.0 20.0)
           (-70.0 70.0)
           (-60.0 70.0)
  end
  begin
     id 3 
     name ltibia
     direction 0.34202 -0.939693 0   
     length 7.56807   
     axis 0 0 20   XYZ
    dof rx
    limits (-10.0 170.0)
  end
  begin
     id 4 
     name lfoot
     direction 0.0679796 -0.186772 0.980048   
     length 2.53018   
     axis -90 7.62852e-016 20   XYZ
    dof rx rz
    limits (-45.0 90.0)
           (-70.0 20.0)
  end
  begin
     id 5 
     name ltoes
     direction 1.53625e-011 -4.21881e-011 1   
     length 1.26912   
     axis -90 7.62852e-016 20   XYZ
    dof rx
    limits (-90.0 20.0)
  end
  begin
     id 6 
     name rhipjoint
     direction -0.618868 -0.704065 0.348274   
     length 2.42265  
     axis 0 0 0  XYZ 
  end
  begin
     id 7 
     name rfemur
     direction -0.34202 -0.939693 0   
     length 6.73814   
     axis 0 0 -20   XYZ
    dof rx ry rz
    limits (-160.0 20.0)
           (-70.0 70.0)
           (-70.0 60.0)
  end
  begin
     id 8 
     name rtibia
     direction -0.34202 -0.939693 0   
     length 7.66799   
     axis 0 0 -20   XYZ
    dof rx
    limits (-10.0 170.0)
 end
 begin
     id 9 
     name rfoot
     direction -0.0727352 -0.199838 0.977125   
     length 2.57224  
     axis -90 -7.62852e-016 -20   XYZ
    dof rx rz
    limits (-45.0 90.0)
           (-20.0 70.0)
  end
  begin
     id 10 
     name rtoes
     direction -1.53501e-011 -4.21858e-011 1   
     length 1.28858   
     axis -90 -7.62852e-016 -20   XYZ
    dof rx
    limits (-90.0 20.0)
  end
  begin
     id 11 
     name lowerback
     direction -0.0172471 0.995767 -0.0902851   
     length 2.20206   
     axis 0 0 0   XYZ
    dof rx ry rz
    limits (-20.0 45.0)
           (-30.0 30.0)
           (-30.0 30.0)
  end
  begin
     id 12 
     name upperback
     direction -0.000110737 0.999714 0.0239043   
     length 2.19523   
     axis 0 0 0   XYZ
    dof rx ry rz
    limits (-20.0 45.0)
           (-30.0 30.0)
           (-30.0 30.0)
  end
  begin
     id 13 
     name thorax
     direction 0.00704869 0.997783 0.0661741   
     length 2.21977   
     axis 0 0 0   XYZ
    dof rx ry rz
    limits (-20.0 45.0)
           (-30.0 30.0)
           (-30.0 30.0)
  end
  begin
     id 14 
     name lowerneck
     direction -0.00407501 0.995527 0.0943846   
     length 1.83142   
     axis 0 0 0   XYZ
    dof rx ry rz
    limits (-20.0 45.0)
           (-30.0 30.0)
           (-30.0 30.0)
  end
  begin
     id 15 
     name upperneck
     direction 0.0640586 0.986486 -0.150807   
     length 1.84616   
     axis 0 0 0   XYZ
    dof rx ry rz
    limits (-20.0 45.0)
           (-30.0 30.0)
           (-30.0 30.0)
  end
  begin
     id 16
     name head
     direction 0.0188017 0.99791 -0.0618239  
     length 1.85932  
     axis 0 0 0   XYZ
    dof rx ry rz
    limits (-20.0 45.0)
           (-30.0 30.0)
           (-30.0 30.0)
  end
  begin
     id 17 
     name lclavicle
     direction 0.976074 0.206905 0.066852  
     length 3.81043  
     axis 0 0 0   XYZ
    dof ry rz
    limits (-20.0 10.0)
           (0.0 20.0)
  end
  begin
     id 18 
     name lhumerus
     direction 1 -4.48971e-011 1.86916e-027   
     length 5.37587   
     axis 180 -30 -90   XYZ
    dof rx ry rz
    limits (-60.0 90.0)
           (-90.0 90.0)
           (-90.0 90.0)
  end
  begin
     id 19
     name lradius
     direction 1 -4.48968e-011 1.69187e-027   
     length 3.35977   
     axis 180 -30 -90   XYZ
    dof rx
    limits (-10.0 170.0)
  end
  begin
     id 20
     name lwrist
     direction 1 -4.48968e-011 5.8978e-027   
     length 1.67988   
     axis -3.27506e-015 90 90   XYZ
    dof ry
    limits (-180.0 0.0)
 end
  begin
     id 21 
     name lhand
     direction 1 -4.49028e-011 1.18071e-026   
     length 0.561859   
     axis -7.52654e-015 90 90   XYZ
    dof rx rz
    limits (-90.0 90.0)
           (-45.0 45.0)
  end
  begin
     id 22 
     name lfingers
     direction 1 -4.48927e-011 2.35758e-026   
     length 0.452985   
     axis -1.50534e-014 90 90   XYZ
    dof rx
    limits (0.0 90.0)
  end
  begin
     id 23
     name lthumb
     direction 0.707107 -6.34898e-011 0.707107   
     length 0.650399   
     axis -90 45 5.69224e-014   XYZ
    dof rx rz
    limits (-45.0 45.0)
           (-45.0 45.0)
  end
  begin
     id 24 
     name rclavicle
     direction -0.988403 0.151789 0.00439714   
     length 3.6942  
     axis 0 0 0   XYZ 
    dof ry rz
    limits (-10.0 20.0)
           (-20.0 0.0)
  end
  begin
     id 25 
     name rhumerus
     direction -1 -4.48978e-011 1.62495e-027  
     length 5.22819   
     axis 180 30 90   XYZ
    dof rx ry rz
    limits (-90.0 60.0)
           (-90.0 90.0)
           (-90.0 90.0)
  end
  begin
     id 26 
     name rradius
     direction -1 -4.48961e-011 3.47796e-027   
     length 3.40764   
     axis 180 30 90   XYZ
    dof rx
    limits (-10.0 170.0)
  end
  begin
     id 27 
     name rwrist
     direction -1 -4.48949e-011 5.89602e-027   
     length 1.70382   
     axis -3.27506e-015 -90 -90   XYZ
    dof ry
    limits (-180.0 0.0)
  end
  begin
     id 28
     name rhand
     direction -1 -4.48977e-011 1.17973e-026   
     length 0.583255   
     axis -7.52654e-015 -90 -90   XYZ
    dof rx rz
    limits (-90.0 90.0)
           (-45.0 45.0)
  end
  begin
     id 29
     name rfingers
     direction -1 -4.49099e-011 2.36408e-026   
     length 0.470235   
     axis -1.50534e-014 -90 -90   XYZ
    dof rx
    limits (0.0 90.0)
  end
  begin
     id 30
     name rthumb
     direction -0.707107 -6.35011e-011 0.707107   
     length 0.675167   
     axis -90 -45 -5.69224e-014   XYZ
    dof rx rz
    limits (-45.0 45.0)
           (-45.0 45.0)
  end
:hierarchy
  begin
    root lhipjoint rhipjoint lowerback
    lhipjoint lfemur
    lfemur ltibia
    ltibia lfoot
    lfoot ltoes
    rhipjoint rfemur
    rfemur rtibia
    rtibia rfoot
    rfoot rtoes
    lowerback upperback
    upperback thorax
    thorax lowerneck lclavicle rclavicle
    lowerneck upperneck
    upperneck head
    lclavicle lhumerus
    lhumerus lradius
    lradius lwrist
    lwrist lhand lthumb
    lhand lfingers
    rclavicle rhumerus
    rhumerus rradius
    rradius rwrist
    rwrist rhand rthumb
    rhand rfingers
  end

#!OML:ASF G:\JayActor3\Patient Classification 1\Patient 1\Session 2\male.ASF
:FULLY-SPECIFIED
:DEGREES
1
root 49.3383 16.4516 -6.70315 169.426 -84.2502 -172.311
lowerback -4.9322 -2.53429 -4.99593
upperback 6.1637 -3.15177 1.13142
thorax 9.67418 -1.98222 3.57557
lowerneck -5.57957 -7.93811 -7.80925
upperneck 34.5358 -14.8418 6.21291
head 13.7064 -7.51268 1.61662
rclavicle -7.76503e-015 -1.11816e-014
rhumerus -39.4043 21.0174 -80.4892
rradius 60.4333
rwrist -20.2012
rhand -28.6377 -0.640447
rfingers 7.12502
rthumb -2.00179 -30.6108
lclavicle -7.76503e-015 -1.11816e-014
lhumerus -32.1277 -14.9347 86.8713
lradius 45.1255
lwrist 22.4824
lhand -19.4173 20.8791
lfingers 7.12502
lthumb 6.90236 50.7466
rfemur -11.3309 5.5219 18.0147
rtibia 39.7605
rfoot -23.9672 -5.54593
rtoes 14.5398
lfemur -2.39727 5.37753 -18.0328
ltibia 26.496
lfoot -18.1672 5.22141
ltoes -7.0025
2
root 49.3412 16.4543 -6.72918 168.374 -84.1606 -171.238
lowerback -4.88661 -2.58743 -4.81099
upperback 6.21768 -3.25513 1.23661
thorax 9.71209 -2.02772 3.5702
lowerneck -5.60127 -7.90237 -7.85966
upperneck 34.4999 -14.7455 6.15238
head 13.6835 -7.48122 1.61604
rclavicle -1.7257e-014 4.37326e-015
rhumerus -39.6134 21.3562 -80.3577
rradius 61.3725
rwrist -20.4015
rhand -28.6214 -0.753956
rfingers 7.12502
rthumb -1.98605 -30.7245
lclavicle -1.7257e-014 4.37326e-015
lhumerus -32.3912 -15.2089 86.9655
lradius 45.9971
lwrist 22.5571
lhand -19.4042 20.8116
lfingers 7.12502
lthumb 6.91494 50.6787
rfemur -11.2881 5.65245 18.2702
rtibia 39.638
rfoot -23.9909 -5.59927
rtoes 14.7558
lfemur -2.42937 5.26266 -17.825
ltibia 26.5345
lfoot -18.1626 5.40863
ltoes -7.17786
3
root 49.3453 16.4583 -6.75532 167.764 -84.0792 -170.581
lowerback -4.80883 -2.60002 -4.63735
upperback 6.24302 -3.2995 1.30007
thorax 9.69026 -2.0411 3.53702
lowerneck -5.59625 -7.89591 -7.81518
upperneck 34.4592 -14.7086 6.08102
head 13.6489 -7.4666 1.58833
rclavicle -9.76312e-014 3.21286e-014
rhumerus -39.8401 21.5516 -80.2767
rradius 62.2639
rwrist -20.5891
rhand -28.581 -0.73404
rfingers 7.12502
rthumb -1.94703 -30.7049
lclavicle -9.76312e-014 3.21286e-014
lhumerus -32.7276 -15.6518 87.0462
lradius 46.9796
lwrist 22.7051
lhand -20.381 18.6793
lfingers 7.12502
lthumb 5.97195 48.5752
rfemur -11.2885 5.73034 18.4714
rtibia 39.5347
rfoot -23.9817 -5.62349
rtoes 14.9313
lfemur -2.48269 5.07629 -17.6797
ltibia 26.5644
lfoot -18.1893 5.63129
ltoes -7.14982
4
root 49.3505 16.4619 -6.78012 167.523 -84.0108 -170.279
lowerback -4.73757 -2.60766 -4.47357
upperback 6.26549 -3.33411 1.34722
thorax 9.66756 -2.0495 3.49314
lowerneck -5.61541 -7.89315 -7.81359
upperneck 34.4543 -14.7015 6.0742
head 13.6492 -7.46234 1.58574
rclavicle 4.07618e-014 -8.08417e-015
rhumerus -40.0869 21.7598 -80.2037
rradius 63.1626
rwrist -20.6137
rhand -28.6362 -0.776937
rfingers 7.12502
rthumb -2.00035 -30.7473
lclavicle 4.07618e-014 -8.08417e-015
lhumerus -32.9814 -16.1191 87.1309
lradius 47.8663
lwrist 22.8842
lhand -20.2399 18.7692
lfingers 7.12502
lthumb 6.10818 48.6611
rfemur -11.3222 5.78424 18.6192
rtibia 39.4293
rfoot -23.9563 -5.66635
rtoes 15.0059
lfemur -2.58132 4.93077 -17.5834
ltibia 26.6041
lfoot -18.1643 5.90398
ltoes -7.43394
5
root 49.3562 16.4658 -6.80632 166.647 -83.9224 -169.34
lowerback -4.66392 -2.62209 -4.26884
upperback 6.28955 -3.38457 1.42572
thorax 9.64603 -2.06441 3.45775
lowerneck -5.6258 -7.88197 -7.80699
upperneck 34.4291 -14.6692 6.04467
head 13.6331 -7.44919 1.57839
rclavicle -1.14612e-015 8.87077e-015
rhumerus -40.3205 22.0024 -80.1225
rradius 64.0633
rwrist -20.6587
rhand -28.6314 -0.754621
rfingers 7.12502
rthumb -1.99574 -30.725
lclavicle -1.14612e-015 8.87077e-015
lhumerus -33.2542 -16.5374 87.2087
lradius 48.7764
lwrist 23.0376
lhand -20.3204 18.5288
lfingers 7.12502
lthumb 6.0305 48.423
rfemur -11.3536 5.8864 18.8617
rtibia 39.3247
rfoot -23.9488 -5.74754
rtoes 15.1106
lfemur -2.67804 4.78337 -17.396
ltibia 26.6449
lfoot -18.1502 6.13534
ltoes -7.56585
6
root 49.3618 16.4698 -6.83251 165.88 -83.8436 -168.503
lowerback -4.59761 -2.63719 -4.07415
upperback 6.31099 -3.43412 1.50181
thorax 9.62634 -2.07941 3.42533
lowerneck -5.63739 -7.87241 -7.79801
upperneck 34.4077 -14.6415 6.01714
head 13.6195 -7.43749 1.57059
rclavicle 6.87919e-014 -2.08227e-014
rhumerus -40.5613 22.2561 -80.0483
rradius 64.9651
rwrist -20.648
rhand -28.6025 -0.673524
rfingers 7.12502
rthumb -1.96782 -30.6442
lclavicle 6.87919e-014 -2.08227e-014
lhumerus -33.5199 -16.9584 87.2844
lradius 49.6817
lwrist 23.2
lhand -20.2648 18.6001
lfingers 7.12502
lthumb 6.08419 48.4928
rfemur -11.3948 5.97533 19.0897
rtibia 39.2257
rfoot -23.9429 -5.83071
rtoes 15.197
lfemur -2.77689 4.63752 -17.2202
ltibia 26.6729
lfoot -18.1302 6.3596
ltoes -7.68827
7
root 49.3667 16.4739 -6.85847 165.319 -83.7815 -167.865
lowerback -4.54597 -2.65771 -3.89948
upperback 6.32924 -3.48779 1.57324
thorax 9.61335 -2.09757 3.39808
lowerneck -5.64049 -7.86075 -7.79936
upperneck 34.3856 -14.6124 5.99684
head 13.6054 -7.42615 1.56793
rclavicle 3.85518e-014 -6.80837e-015
rhumerus -40.813 22.5331 -79.9808
rradius 65.8715
rwrist -20.5851
rhand -28.5413 -0.534312
rfingers 7.12502
rthumb -1.90868 -30.5055
lclavicle 3.85518e-014 -6.80837e-015
lhumerus -33.7763 -17.3653 87.3591
lradius 50.5717
lwrist 23.3617
lhand -20.0391 19.0204
lfingers 7.12502
lthumb 6.30206 48.9067
rfemur -11.4412 6.04306 19.2866
rtibia 39.1312
rfoot -23.9394 -5.90495
rtoes 15.2717
lfemur -2.86855 4.50149 -17.0694
ltibia 26.6757
lfoot -18.0988 6.56939
ltoes -7.81796
8
root 49.3692 16.478 -6.88396 165.275 -83.7561 -167.75
lowerback -4.52009 -2.68633 -3.78009
upperback 6.34949 -3.54465 1.62707
thorax 9.62103 -2.12061 3.38144
lowerneck -5.63485 -7.84957 -7.80721
upperneck 34.3635 -14.5847 5.97831
head 13.5903 -7.41641 1.56728
rclavicle -1.81391e-015 5.56597e-015
rhumerus -41.0764 22.8223 -79.9188
rradius 66.781
rwrist -20.477
rhand -28.4436 -0.343688
rfingers 7.12502
rthumb -1.81434 -30.3157
lclavicle -1.81391e-015 5.56597e-015
lhumerus -34.0192 -17.7614 87.4338
lradius 51.44
lwrist 23.5156
lhand -19.7484 19.5471
lfingers 7.12502
lthumb 6.58275 49.4248
rfemur -11.4771 6.05866 19.402
rtibia 39.0517
rfoot -23.9441 -5.94427
rtoes 15.3204
lfemur -2.92038 4.37478 -16.989
ltibia 26.6292
lfoot -18.0587 6.75365
ltoes -7.93619
9
root 49.3697 16.4819 -6.90893 165.73 -83.7699 -168.139
lowerback -4.5159 -2.72107 -3.71331
upperback 6.37094 -3.60235 1.66181
thorax 9.64556 -2.14703 3.37279
lowerneck -5.6235 -7.83976 -7.81978
upperneck 34.345 -14.5611 5.96357
head 13.5768 -7.409 1.56843
rclavicle -3.3048e-015 -6.75868e-015
rhumerus -41.3562 23.1141 -79.8631
rradius 67.6993
rwrist -20.3416
rhand -28.3207 -0.127455
rfingers 7.12502
rthumb -1.69565 -30.1005
lclavicle -3.3048e-015 -6.75868e-015
lhumerus -34.2506 -18.142 87.5068
lradius 52.2891
lwrist 23.6484
lhand -19.4562 20.0347
lfingers 7.12502
lthumb 6.86482 49.9034
rfemur -11.5038 6.02266 19.4374
rtibia 38.9887
rfoot -23.9557 -5.95078
rtoes 15.3353
lfemur -2.93225 4.2548 -16.9786
ltibia 26.5302
lfoot -18.0052 6.91649
ltoes -8.06121
